{"title":"White House Down 2013 DVDSCR AC3-MURDER","uid":8780391,"size":1582620440,"categoryP":"video","categoryS":"movies","magnet":"?xt=urn:btih:a118b14a3674fde278d4e5cd48ace4d6aba41508&amp;dn=White+House+Down+2013+DVDSCR+AC3-MURDER&amp;tr=udp%3A%2F%2Ftracker.openbittorrent.com%3A80&amp;tr=udp%3A%2F%2Fopen.demonii.com%3A1337&amp;tr=udp%3A%2F%2Ftracker.coppersurfer.tk%3A6969&amp;tr=udp%3A%2F%2Fexodus.desync.com%3A6969","seeders":3,"leechers":0,"uploader":"HeroMaster","files":-1,"time":1375697119,"description":"White House Down 2013 DVDSCR AC3-MURDER\n\n\nIMDB: http://www.imdb.com/title/tt2334879/\n\n\nSource: White House Down 2013 DVDScr XviD AC3-SmY (thanks)\n\n\nFormat                                   : Matroska\nFormat version                           : Version 4 / Version 2\nFile size                                : 1.47 GiB\nDuration                                 : 2h 4mn\nOverall bit rate                         : 1 687 Kbps\nEncoded date                             : UTC 2013-08-04 21:16:58\n\n\nVideo\nID                                       : 1\nFormat                                   : AVC\nFormat/Info                              : Advanced Video Codec\nFormat profile                           : &lt;a class=&quot;__cf_email__&quot; href=&quot;/cdn-cgi/l/email-protection&quot; data-cfemail=&quot;d694b7a5b3babfb8b3969ae5f8e6&quot;&gt;[email&amp;#160;protected]&lt;/a&gt;&lt;script cf-hash='f9e31' type=&quot;text/javascript&quot;&gt;\n/* &lt;![CDATA[ */!function(){try{var t=&quot;currentScript&quot;in document?document.currentScript:function(){for(var t=document.getElementsByTagName(&quot;script&quot;),e=t.length;e--;)if(t[e].getAttribute(&quot;cf-hash&quot;))return t[e]}();if(t&amp;&amp;t.previousSibling){var e,r,n,i,c=t.previousSibling,a=c.getAttribute(&quot;data-cfemail&quot;);if(a){for(e=&quot;&quot;,r=parseInt(a.substr(0,2),16),n=2;a.length-n;n+=2)i=parseInt(a.substr(n,2),16)^r,e+=String.fromCharCode(i);e=document.createTextNode(e),c.parentNode.replaceChild(e,c)}}}catch(u){}}();/* ]]&gt; */&lt;/script&gt;\nFormat settings, CABAC                   : No\nFormat settings, ReFrames                : 1 frame\nCodec ID                                 : V_MPEG4/ISO/AVC\nDuration                                 : 2h 4mn\nBit rate                                 : 1 525 Kbps\nWidth                                    : 640 pixels\nHeight                                   : 296 pixels\nDisplay aspect ratio                     : 2.35:1\nFrame rate mode                          : Constant\nFrame rate                               : 29.970 fps\nColor space                              : YUV\nChroma subsampling                       : 4:2:0\nBit depth                                : 8 bits\nScan type                                : Progressive\nBits/(Pixel*Frame)                       : 0.269\nStream size                              : 1.33 GiB (90%)\nWriting library                          : \nDefault                                  : Yes\nForced                                   : No\n\n\nAudio\nID                                       : 2\nFormat                                   : AC-3\nFormat/Info                              : Audio Coding 3\nMode extension                           : CM (complete main)\nFormat settings, Endianness              : Big\nCodec ID                                 : A_AC3\nDuration                                 : 2h 4mn\nBit rate mode                            : Constant\nBit rate                                 : 128 Kbps\nChannel(s)                               : 2 channels\nChannel positions                        : Front: L R\nSampling rate                            : 44.1 KHz\nBit depth                                : 16 bits\nCompression mode                         : Lossy\nStream size                              : 114 MiB (8%)\nDefault                                  : Yes\nForced                                   : No\n\n\nPoster:\n\n &lt;a href=&quot;\nhttp://i.imgur.com/f2dGjWc.jpg&quot; rel=&quot;nofollow&quot; target=&quot;_NEW&quot;&gt;\nhttp://i.imgur.com/f2dGjWc.jpg&lt;/a&gt;\n\n\nScreenshots:\n\n &lt;a href=&quot;\nhttp://i.imgur.com/QhLXwkS.png&quot; rel=&quot;nofollow&quot; target=&quot;_NEW&quot;&gt;\nhttp://i.imgur.com/QhLXwkS.png&lt;/a&gt;\n\n &lt;a href=&quot;\nhttp://i.imgur.com/d1sDAoh.png&quot; rel=&quot;nofollow&quot; target=&quot;_NEW&quot;&gt;\nhttp://i.imgur.com/d1sDAoh.png&lt;/a&gt;\n\n &lt;a href=&quot;\nhttp://i.imgur.com/c0Q8oxq.png&quot; rel=&quot;nofollow&quot; target=&quot;_NEW&quot;&gt;\nhttp://i.imgur.com/c0Q8oxq.png&lt;/a&gt;\n\n\nSEED AND ENJOY!","torrent":{"xt":"urn:btih:a118b14a3674fde278d4e5cd48ace4d6aba41508","amp;dn":"White+House+Down+2013+DVDSCR+AC3-MURDER","amp;tr":["udp%3A%2F%2Ftracker.openbittorrent.com%3A80","udp%3A%2F%2Fopen.demonii.com%3A1337","udp%3A%2F%2Ftracker.coppersurfer.tk%3A6969","udp%3A%2F%2Fexodus.desync.com%3A6969"],"infoHash":"a118b14a3674fde278d4e5cd48ace4d6aba41508","infoHashBuffer":{"type":"Buffer","data":[161,24,177,74,54,116,253,226,120,212,229,205,72,172,228,214,171,164,21,8]},"announce":[],"urlList":[]}}